<svg xmlns="http://www.w3.org/2000/svg" viewBox="0 0 1600 1200" fill="none">
  <defs>
    <linearGradient id="violet-stroke" x1="0" y1="0" x2="1600" y2="0" gradientUnits="userSpaceOnUse">
      <stop offset="0" stop-color="#5B46C5"/>
      <stop offset="0.52" stop-color="#7B66E8"/>
      <stop offset="1" stop-color="#8D7AF4"/>
    </linearGradient>
  </defs>

  <g stroke="url(#violet-stroke)" stroke-linecap="round">
    <g stroke-width="1.5">
      <path opacity="0.14" d="M-180 244C110 386 392 96 672 238S1162 532 1780 252"/>
      <path opacity="0.15" d="M-180 268C110 410 392 120 672 262S1162 556 1780 276"/>
      <path opacity="0.16" d="M-180 292C110 434 392 144 672 286S1162 580 1780 300"/>
      <path opacity="0.17" d="M-180 316C110 458 392 168 672 310S1162 604 1780 324"/>
      <path opacity="0.18" d="M-180 340C110 482 392 192 672 334S1162 628 1780 348"/>
      <path opacity="0.19" d="M-180 364C110 506 392 216 672 358S1162 652 1780 372"/>
      <path opacity="0.2" d="M-180 388C110 530 392 240 672 382S1162 676 1780 396"/>
      <path opacity="0.21" d="M-180 412C110 554 392 264 672 406S1162 700 1780 420"/>
      <path opacity="0.22" d="M-180 436C110 578 392 288 672 430S1162 724 1780 444"/>
      <path opacity="0.23" d="M-180 460C110 602 392 312 672 454S1162 748 1780 468"/>
      <path opacity="0.24" d="M-180 484C110 626 392 336 672 478S1162 772 1780 492"/>
      <path opacity="0.25" d="M-180 508C110 650 392 360 672 502S1162 796 1780 516"/>
    </g>

    <g stroke-width="1.3">
      <path opacity="0.16" d="M-180 706C166 498 472 866 792 670S1268 416 1780 744"/>
      <path opacity="0.17" d="M-180 730C166 522 472 890 792 694S1268 440 1780 768"/>
      <path opacity="0.18" d="M-180 754C166 546 472 914 792 718S1268 464 1780 792"/>
      <path opacity="0.19" d="M-180 778C166 570 472 938 792 742S1268 488 1780 816"/>
      <path opacity="0.2" d="M-180 802C166 594 472 962 792 766S1268 512 1780 840"/>
      <path opacity="0.21" d="M-180 826C166 618 472 986 792 790S1268 536 1780 864"/>
      <path opacity="0.22" d="M-180 850C166 642 472 1010 792 814S1268 560 1780 888"/>
      <path opacity="0.23" d="M-180 874C166 666 472 1034 792 838S1268 584 1780 912"/>
      <path opacity="0.24" d="M-180 898C166 690 472 1058 792 862S1268 608 1780 936"/>
      <path opacity="0.25" d="M-180 922C166 714 472 1082 792 886S1268 632 1780 960"/>
      <path opacity="0.26" d="M-180 946C166 738 472 1106 792 910S1268 656 1780 984"/>
      <path opacity="0.27" d="M-180 970C166 762 472 1130 792 934S1268 680 1780 1008"/>
    </g>
  </g>
</svg>
